<svg xmlns="http://www.w3.org/2000/svg" viewBox="0.5 0 250 40"><title>Shape 11</title><path fill="#6A5D7D" d="M125.5 26.7h-3l-9-19.2h4.7l5.8 12.7 5.4-12.7h4.6l-8.5 19.2zm84.9-9.6c0-1.4.3-2.7.8-3.9.5-1.2 1.2-2.3 2.1-3.2.9-.9 1.9-1.6 3.1-2.1 1.2-.5 2.5-.8 3.9-.8s2.7.3 3.8.8c1.2.5 2.2 1.2 3.1 2.1.9.9 1.6 1.9 2.1 3.1.5 1.2.8 2.5.8 4 0 1.4-.3 2.7-.8 3.9-.5 1.2-1.2 2.3-2.1 3.2-.9.9-1.9 1.6-3.1 2.1-1.2.5-2.5.8-3.8.8-1.4 0-2.7-.3-3.9-.8-1.2-.5-2.2-1.2-3.1-2.1-.9-.9-1.6-1.9-2.1-3.1-.5-1.3-.8-2.6-.8-4zm-116.9 0c0-1.4.3-2.7.8-3.9.5-1.2 1.2-2.3 2.1-3.2.9-.9 1.9-1.6 3.1-2.1 1.2-.5 2.5-.8 3.9-.8s2.7.3 3.8.8c1.2.5 2.2 1.2 3.1 2.1.9.9 1.6 1.9 2.1 3.1.5 1.2.8 2.5.8 4 0 1.4-.3 2.7-.8 3.9-.5 1.2-1.2 2.3-2.1 3.2-.9.9-1.9 1.6-3.1 2.1-1.2.5-2.5.8-3.8.8-1.4 0-2.7-.3-3.9-.8-1.2-.5-2.2-1.2-3.1-2.1-.9-.9-1.6-1.9-2.1-3.1-.6-1.3-.8-2.6-.8-4zm40.9 0c0-1.4.3-2.7.8-3.9.5-1.2 1.2-2.3 2.1-3.2.9-.9 1.9-1.6 3.1-2.1 1.2-.5 2.5-.8 3.9-.8s2.7.3 3.8.8c1.2.5 2.2 1.2 3.1 2.1.9.9 1.6 1.9 2.1 3.1.5 1.2.8 2.5.8 4 0 1.4-.3 2.7-.8 3.9-.5 1.2-1.2 2.3-2.1 3.2-.9.9-1.9 1.6-3.1 2.1-1.2.5-2.5.8-3.8.8-1.4 0-2.7-.3-3.9-.8-1.2-.5-2.2-1.2-3.1-2.1-.9-.9-1.6-1.9-2.1-3.1-.6-1.3-.8-2.6-.8-4zm108 2.7v6.9h-4.2v-6.9l-7.7-12.3h5.1l4.8 7.7 4.9-7.7h4.9l-7.8 12.3zm-50.2 6.9V7.4h7.7c1.5 0 2.8.2 3.8.5 1 .4 1.8.8 2.4 1.4.6.6 1 1.2 1.2 2 .2.8.4 1.5.4 2.3 0 1.2-.3 2.4-1 3.4s-1.6 1.8-2.7 2.2l5.3 7.3h-5.1l-4.7-6.6h-3v6.6h-4.3zm-24.9-5.4c0-.6-.3-1-.8-1.3-.5-.3-1.2-.6-2-.8-.8-.2-1.6-.5-2.6-.7-.9-.3-1.8-.6-2.6-1s-1.4-1-2-1.7c-.5-.7-.8-1.7-.8-2.8 0-.8.2-1.5.5-2.2.3-.7.8-1.3 1.5-1.9.6-.5 1.4-1 2.3-1.3.9-.3 1.9-.5 3.1-.5 1.6 0 3.1.3 4.4.9 1.3.6 2.3 1.5 3.1 2.6l-2.8 2.7c-.5-.6-1.2-1.1-2-1.6s-1.7-.7-2.8-.7c-1 0-1.7.2-2.2.5-.5.3-.7.8-.7 1.3s.3.9.8 1.2c.5.3 1.2.5 2 .7.8.2 1.6.5 2.6.7.9.3 1.8.6 2.6 1s1.4 1 2 1.7c.5.7.8 1.7.8 2.8 0 .9-.2 1.7-.5 2.4-.4.7-.9 1.4-1.5 1.9s-1.4 1-2.3 1.3c-.9.3-1.8.5-2.9.5-1.1 0-2.2-.1-3.1-.4-.9-.3-1.8-.6-2.5-1s-1.4-.9-1.9-1.5-1-1.2-1.3-1.8l3.1-2.6c.6 1 1.4 1.8 2.4 2.4 1 .6 2.1.9 3.2.9s1.8-.2 2.3-.5c.4-.3.6-.7.6-1.2zm-80.4 5.4l-9.3-11.4v11.4h-4.1V7.4h3.3l9.3 11.4V7.4h4.1v19.2h-3.3zm86.3-19.3h16.5v4h-6.2v15.2h-4.2V11.4h-6.1v-4zm-34 7.2c-.3.7-.5 1.5-.5 2.4 0 .9.2 1.7.5 2.4s.7 1.3 1.2 1.8 1.1.9 1.7 1.2c.7.3 1.4.4 2.1.4.7 0 1.5-.1 2.1-.4.7-.3 1.2-.7 1.7-1.2s.9-1.1 1.2-1.8c.3-.7.4-1.5.4-2.4 0-.9-.2-1.7-.5-2.4s-.7-1.3-1.2-1.8-1.1-.9-1.7-1.2c-.7-.3-1.3-.4-2-.4s-1.4.1-2.1.4c-.7.3-1.2.7-1.7 1.2s-.9 1.1-1.2 1.8zm-40.9 0c-.3.7-.5 1.5-.5 2.4 0 .9.2 1.7.5 2.4s.7 1.3 1.2 1.8 1.1.9 1.7 1.2c.7.3 1.4.4 2.1.4.7 0 1.5-.1 2.1-.4.7-.3 1.2-.7 1.7-1.2s.9-1.1 1.2-1.8c.3-.7.4-1.5.4-2.4 0-.9-.2-1.7-.5-2.4s-.7-1.3-1.2-1.8-1.1-.9-1.7-1.2c-.7-.3-1.3-.4-2-.4s-1.4.1-2.1.4c-.7.3-1.2.7-1.7 1.2s-.9 1.1-1.2 1.8zm117 0c-.3.7-.5 1.5-.5 2.4 0 .9.1 1.7.5 2.4.3.7.7 1.3 1.2 1.8s1.1.9 1.7 1.2c.7.3 1.4.4 2.1.4.7 0 1.5-.1 2.1-.4.7-.3 1.2-.7 1.7-1.2s.9-1.1 1.2-1.8c.3-.7.4-1.5.4-2.4 0-.9-.2-1.7-.5-2.4s-.7-1.3-1.2-1.8-1.1-.9-1.7-1.2c-.7-.3-1.3-.4-2-.4s-1.4.1-2.1.4c-.7.3-1.2.7-1.7 1.2s-.9 1.1-1.2 1.8zm-18.8-3.2v4.7h3.6c1 0 1.8-.2 2.4-.6.6-.4.8-1 .8-1.8 0-.3-.1-.7-.2-.9-.1-.3-.3-.5-.5-.7-.3-.2-.6-.4-1.1-.5-.4-.1-1-.2-1.7-.2h-3.3z"/><path fill="#6A5D7D" d="M125.5 26.7h-3l-9-19.2h4.7l5.8 12.7 5.4-12.7h4.6l-8.5 19.2zm84.9-9.6c0-1.4.3-2.7.8-3.9.5-1.2 1.2-2.3 2.1-3.2.9-.9 1.9-1.6 3.1-2.1 1.2-.5 2.5-.8 3.9-.8s2.7.3 3.8.8c1.2.5 2.2 1.2 3.1 2.1.9.9 1.6 1.9 2.1 3.1.5 1.2.8 2.5.8 4 0 1.4-.3 2.7-.8 3.9-.5 1.2-1.2 2.3-2.1 3.2-.9.9-1.9 1.6-3.1 2.1-1.2.5-2.5.8-3.8.8-1.4 0-2.7-.3-3.9-.8-1.2-.5-2.2-1.2-3.1-2.1-.9-.9-1.6-1.9-2.1-3.1-.5-1.3-.8-2.6-.8-4zm-116.9 0c0-1.4.3-2.7.8-3.9.5-1.2 1.2-2.3 2.1-3.2.9-.9 1.9-1.6 3.1-2.1 1.2-.5 2.5-.8 3.9-.8s2.7.3 3.8.8c1.2.5 2.2 1.2 3.1 2.1.9.9 1.6 1.9 2.1 3.1.5 1.2.8 2.5.8 4 0 1.4-.3 2.7-.8 3.9-.5 1.2-1.2 2.3-2.1 3.2-.9.9-1.9 1.6-3.1 2.1-1.2.5-2.5.8-3.8.8-1.4 0-2.7-.3-3.9-.8-1.2-.5-2.2-1.2-3.1-2.1-.9-.9-1.6-1.9-2.1-3.1-.6-1.3-.8-2.6-.8-4zm40.9 0c0-1.4.3-2.7.8-3.9.5-1.2 1.2-2.3 2.1-3.2.9-.9 1.9-1.6 3.1-2.1 1.2-.5 2.5-.8 3.9-.8s2.7.3 3.8.8c1.2.5 2.2 1.2 3.1 2.1.9.9 1.6 1.9 2.1 3.1.5 1.2.8 2.5.8 4 0 1.4-.3 2.7-.8 3.9-.5 1.2-1.2 2.3-2.1 3.2-.9.9-1.9 1.6-3.1 2.1-1.2.5-2.5.8-3.8.8-1.4 0-2.7-.3-3.9-.8-1.2-.5-2.2-1.2-3.1-2.1-.9-.9-1.6-1.9-2.1-3.1-.6-1.3-.8-2.6-.8-4zm108 2.7v6.9h-4.2v-6.9l-7.7-12.3h5.1l4.8 7.7 4.9-7.7h4.9l-7.8 12.3zm-50.2 6.9V7.4h7.7c1.5 0 2.8.2 3.8.5 1 .4 1.8.8 2.4 1.4.6.6 1 1.2 1.2 2 .2.8.4 1.5.4 2.3 0 1.2-.3 2.4-1 3.4s-1.6 1.8-2.7 2.2l5.3 7.3h-5.1l-4.7-6.6h-3v6.6h-4.3zm-24.9-5.4c0-.6-.3-1-.8-1.3-.5-.3-1.2-.6-2-.8-.8-.2-1.6-.5-2.6-.7-.9-.3-1.8-.6-2.6-1s-1.4-1-2-1.7c-.5-.7-.8-1.7-.8-2.8 0-.8.2-1.5.5-2.2.3-.7.8-1.3 1.5-1.9.6-.5 1.4-1 2.3-1.3.9-.3 1.9-.5 3.1-.5 1.6 0 3.1.3 4.4.9 1.3.6 2.3 1.5 3.1 2.6l-2.8 2.7c-.5-.6-1.2-1.1-2-1.6s-1.7-.7-2.8-.7c-1 0-1.7.2-2.2.5-.5.3-.7.8-.7 1.3s.3.9.8 1.2c.5.3 1.2.5 2 .7.8.2 1.6.5 2.6.7.9.3 1.8.6 2.6 1s1.4 1 2 1.7c.5.7.8 1.7.8 2.8 0 .9-.2 1.7-.5 2.4-.4.7-.9 1.4-1.5 1.9s-1.4 1-2.3 1.3c-.9.3-1.8.5-2.9.5-1.1 0-2.2-.1-3.1-.4-.9-.3-1.8-.6-2.5-1s-1.4-.9-1.9-1.5-1-1.2-1.3-1.8l3.1-2.6c.6 1 1.4 1.8 2.4 2.4 1 .6 2.1.9 3.2.9s1.8-.2 2.3-.5c.4-.3.6-.7.6-1.2zm-80.4 5.4l-9.3-11.4v11.4h-4.1V7.4h3.3l9.3 11.4V7.4h4.1v19.2h-3.3zm86.3-19.3h16.5v4h-6.2v15.2h-4.2V11.4h-6.1v-4zm-34 7.2c-.3.7-.5 1.5-.5 2.4 0 .9.2 1.7.5 2.4s.7 1.3 1.2 1.8 1.1.9 1.7 1.2c.7.3 1.4.4 2.1.4.7 0 1.5-.1 2.1-.4.7-.3 1.2-.7 1.7-1.2s.9-1.1 1.2-1.8c.3-.7.4-1.5.4-2.4 0-.9-.2-1.7-.5-2.4s-.7-1.3-1.2-1.8-1.1-.9-1.7-1.2c-.7-.3-1.3-.4-2-.4s-1.4.1-2.1.4c-.7.3-1.2.7-1.7 1.2s-.9 1.1-1.2 1.8zm-40.9 0c-.3.7-.5 1.5-.5 2.4 0 .9.2 1.7.5 2.4s.7 1.3 1.2 1.8 1.1.9 1.7 1.2c.7.3 1.4.4 2.1.4.7 0 1.5-.1 2.1-.4.7-.3 1.2-.7 1.7-1.2s.9-1.1 1.2-1.8c.3-.7.4-1.5.4-2.4 0-.9-.2-1.7-.5-2.4s-.7-1.3-1.2-1.8-1.1-.9-1.7-1.2c-.7-.3-1.3-.4-2-.4s-1.4.1-2.1.4c-.7.3-1.2.7-1.7 1.2s-.9 1.1-1.2 1.8zm117 0c-.3.7-.5 1.5-.5 2.4 0 .9.1 1.7.5 2.4.3.7.7 1.3 1.2 1.8s1.1.9 1.7 1.2c.7.3 1.4.4 2.1.4.7 0 1.5-.1 2.1-.4.7-.3 1.2-.7 1.7-1.2s.9-1.1 1.2-1.8c.3-.7.4-1.5.4-2.4 0-.9-.2-1.7-.5-2.4s-.7-1.3-1.2-1.8-1.1-.9-1.7-1.2c-.7-.3-1.3-.4-2-.4s-1.4.1-2.1.4c-.7.3-1.2.7-1.7 1.2s-.9 1.1-1.2 1.8zm-18.8-3.2v4.7h3.6c1 0 1.8-.2 2.4-.6.6-.4.8-1 .8-1.8 0-.3-.1-.7-.2-.9-.1-.3-.3-.5-.5-.7-.3-.2-.6-.4-1.1-.5-.4-.1-1-.2-1.7-.2h-3.3z"/><linearGradient id="a" gradientUnits="userSpaceOnUse" x1="357.854" y1="-155.112" x2="357.854" y2="-135" gradientTransform="matrix(1 0 0 -1 -196 -128)"><stop offset="0" stop-color="#6a5d7d"/><stop offset="0" stop-color="#6a5d7d"/><stop offset="1" stop-color="#6a5d7d"/></linearGradient><path fill="url(#a)" d="M125.5 26.7h-3l-9-19.2h4.7l5.8 12.7 5.4-12.7h4.6l-8.5 19.2zm84.9-9.6c0-1.4.3-2.7.8-3.9.5-1.2 1.2-2.3 2.1-3.2.9-.9 1.9-1.6 3.1-2.1 1.2-.5 2.5-.8 3.9-.8s2.7.3 3.8.8c1.2.5 2.2 1.2 3.1 2.1.9.9 1.6 1.9 2.1 3.1.5 1.2.8 2.5.8 4 0 1.4-.3 2.7-.8 3.9-.5 1.2-1.2 2.3-2.1 3.2-.9.9-1.9 1.6-3.1 2.1-1.2.5-2.5.8-3.8.8-1.4 0-2.7-.3-3.9-.8-1.2-.5-2.2-1.2-3.1-2.1-.9-.9-1.6-1.9-2.1-3.1-.5-1.3-.8-2.6-.8-4zm-116.9 0c0-1.4.3-2.7.8-3.9.5-1.2 1.2-2.3 2.1-3.2.9-.9 1.9-1.6 3.1-2.1 1.2-.5 2.5-.8 3.9-.8s2.7.3 3.8.8c1.2.5 2.2 1.2 3.1 2.1.9.9 1.6 1.9 2.1 3.1.5 1.2.8 2.5.8 4 0 1.4-.3 2.7-.8 3.9-.5 1.2-1.2 2.3-2.1 3.2-.9.9-1.9 1.6-3.1 2.1-1.2.5-2.5.8-3.8.8-1.4 0-2.7-.3-3.9-.8-1.2-.5-2.2-1.2-3.1-2.1-.9-.9-1.6-1.9-2.1-3.1-.6-1.3-.8-2.6-.8-4zm40.9 0c0-1.4.3-2.7.8-3.9.5-1.2 1.2-2.3 2.1-3.2.9-.9 1.9-1.6 3.1-2.1 1.2-.5 2.5-.8 3.9-.8s2.7.3 3.8.8c1.2.5 2.2 1.2 3.1 2.1.9.9 1.6 1.9 2.1 3.1.5 1.2.8 2.5.8 4 0 1.4-.3 2.7-.8 3.9-.5 1.2-1.2 2.3-2.1 3.2-.9.9-1.9 1.6-3.1 2.1-1.2.5-2.5.8-3.8.8-1.4 0-2.7-.3-3.9-.8-1.2-.5-2.2-1.2-3.1-2.1-.9-.9-1.6-1.9-2.1-3.1-.6-1.3-.8-2.6-.8-4zm108 2.7v6.9h-4.2v-6.9l-7.7-12.3h5.1l4.8 7.7 4.9-7.7h4.9l-7.8 12.3zm-50.2 6.9V7.4h7.7c1.5 0 2.8.2 3.8.5 1 .4 1.8.8 2.4 1.4.6.6 1 1.2 1.2 2 .2.8.4 1.5.4 2.3 0 1.2-.3 2.4-1 3.4s-1.6 1.8-2.7 2.2l5.3 7.3h-5.1l-4.7-6.6h-3v6.6h-4.3zm-24.9-5.4c0-.6-.3-1-.8-1.3-.5-.3-1.2-.6-2-.8-.8-.2-1.6-.5-2.6-.7-.9-.3-1.8-.6-2.6-1s-1.4-1-2-1.7c-.5-.7-.8-1.7-.8-2.8 0-.8.2-1.5.5-2.2.3-.7.8-1.3 1.5-1.9.6-.5 1.4-1 2.3-1.3.9-.3 1.9-.5 3.1-.5 1.6 0 3.1.3 4.4.9 1.3.6 2.3 1.5 3.1 2.6l-2.8 2.7c-.5-.6-1.2-1.1-2-1.6s-1.7-.7-2.8-.7c-1 0-1.7.2-2.2.5-.5.3-.7.8-.7 1.3s.3.9.8 1.2c.5.3 1.2.5 2 .7.8.2 1.6.5 2.6.7.9.3 1.8.6 2.6 1s1.4 1 2 1.7c.5.7.8 1.7.8 2.8 0 .9-.2 1.7-.5 2.4-.4.7-.9 1.4-1.5 1.9s-1.4 1-2.3 1.3c-.9.3-1.8.5-2.9.5-1.1 0-2.2-.1-3.1-.4-.9-.3-1.8-.6-2.5-1s-1.4-.9-1.9-1.5-1-1.2-1.3-1.8l3.1-2.6c.6 1 1.4 1.8 2.4 2.4 1 .6 2.1.9 3.2.9s1.8-.2 2.3-.5c.4-.3.6-.7.6-1.2zm-80.4 5.4l-9.3-11.4v11.4h-4.1V7.4h3.3l9.3 11.4V7.4h4.1v19.2h-3.3zm86.3-19.3h16.5v4h-6.2v15.2h-4.2V11.4h-6.1v-4zm-34 7.2c-.3.7-.5 1.5-.5 2.4 0 .9.2 1.7.5 2.4s.7 1.3 1.2 1.8 1.1.9 1.7 1.2c.7.3 1.4.4 2.1.4.7 0 1.5-.1 2.1-.4.7-.3 1.2-.7 1.7-1.2s.9-1.1 1.2-1.8c.3-.7.4-1.5.4-2.4 0-.9-.2-1.7-.5-2.4s-.7-1.3-1.2-1.8-1.1-.9-1.7-1.2c-.7-.3-1.3-.4-2-.4s-1.4.1-2.1.4c-.7.3-1.2.7-1.7 1.2s-.9 1.1-1.2 1.8zm-40.9 0c-.3.7-.5 1.5-.5 2.4 0 .9.2 1.7.5 2.4s.7 1.3 1.2 1.8 1.1.9 1.7 1.2c.7.3 1.4.4 2.1.4.7 0 1.5-.1 2.1-.4.7-.3 1.2-.7 1.7-1.2s.9-1.1 1.2-1.8c.3-.7.4-1.5.4-2.4 0-.9-.2-1.7-.5-2.4s-.7-1.3-1.2-1.8-1.1-.9-1.7-1.2c-.7-.3-1.3-.4-2-.4s-1.4.1-2.1.4c-.7.3-1.2.7-1.7 1.2s-.9 1.1-1.2 1.8zm117 0c-.3.7-.5 1.5-.5 2.4 0 .9.1 1.7.5 2.4.3.7.7 1.3 1.2 1.8s1.1.9 1.7 1.2c.7.3 1.4.4 2.1.4.7 0 1.5-.1 2.1-.4.7-.3 1.2-.7 1.7-1.2s.9-1.1 1.2-1.8c.3-.7.4-1.5.4-2.4 0-.9-.2-1.7-.5-2.4s-.7-1.3-1.2-1.8-1.1-.9-1.7-1.2c-.7-.3-1.3-.4-2-.4s-1.4.1-2.1.4c-.7.3-1.2.7-1.7 1.2s-.9 1.1-1.2 1.8zm-18.8-3.2v4.7h3.6c1 0 1.8-.2 2.4-.6.6-.4.8-1 .8-1.8 0-.3-.1-.7-.2-.9-.1-.3-.3-.5-.5-.7-.3-.2-.6-.4-1.1-.5-.4-.1-1-.2-1.7-.2h-3.3z"/><path fill="#6A5D7D" d="M125.5 26.7h-3l-9-19.2h4.7l5.8 12.7 5.4-12.7h4.6l-8.5 19.2zm84.9-9.6c0-1.4.3-2.7.8-3.9.5-1.2 1.2-2.3 2.1-3.2.9-.9 1.9-1.6 3.1-2.1 1.2-.5 2.5-.8 3.9-.8s2.7.3 3.8.8c1.2.5 2.2 1.2 3.1 2.1.9.9 1.6 1.9 2.1 3.1.5 1.2.8 2.5.8 4 0 1.4-.3 2.7-.8 3.9-.5 1.2-1.2 2.3-2.1 3.2-.9.9-1.9 1.6-3.1 2.1-1.2.5-2.5.8-3.8.8-1.4 0-2.7-.3-3.9-.8-1.2-.5-2.2-1.2-3.1-2.1-.9-.9-1.6-1.9-2.1-3.1-.5-1.3-.8-2.6-.8-4zm-116.9 0c0-1.4.3-2.7.8-3.9.5-1.2 1.2-2.3 2.1-3.2.9-.9 1.9-1.6 3.1-2.1 1.2-.5 2.5-.8 3.9-.8s2.7.3 3.8.8c1.2.5 2.2 1.2 3.1 2.1.9.9 1.6 1.9 2.1 3.1.5 1.2.8 2.5.8 4 0 1.4-.3 2.7-.8 3.9-.5 1.2-1.2 2.3-2.1 3.2-.9.9-1.9 1.6-3.1 2.1-1.2.5-2.5.8-3.8.8-1.4 0-2.7-.3-3.9-.8-1.2-.5-2.2-1.2-3.1-2.1-.9-.9-1.6-1.9-2.1-3.1-.6-1.3-.8-2.6-.8-4zm40.9 0c0-1.4.3-2.7.8-3.9.5-1.2 1.2-2.3 2.1-3.2.9-.9 1.9-1.6 3.1-2.1 1.2-.5 2.5-.8 3.9-.8s2.7.3 3.8.8c1.2.5 2.2 1.2 3.1 2.1.9.9 1.6 1.9 2.1 3.1.5 1.2.8 2.5.8 4 0 1.4-.3 2.7-.8 3.9-.5 1.2-1.2 2.3-2.1 3.2-.9.9-1.9 1.6-3.1 2.1-1.2.5-2.5.8-3.8.8-1.4 0-2.7-.3-3.9-.8-1.2-.5-2.2-1.2-3.1-2.1-.9-.9-1.6-1.9-2.1-3.1-.6-1.3-.8-2.6-.8-4zm108 2.7v6.9h-4.2v-6.9l-7.7-12.3h5.1l4.8 7.7 4.9-7.7h4.9l-7.8 12.3zm-50.2 6.9V7.4h7.7c1.5 0 2.8.2 3.8.5 1 .4 1.8.8 2.4 1.4.6.6 1 1.2 1.2 2 .2.8.4 1.5.4 2.3 0 1.2-.3 2.4-1 3.4s-1.6 1.8-2.7 2.2l5.3 7.3h-5.1l-4.7-6.6h-3v6.6h-4.3zm-24.9-5.4c0-.6-.3-1-.8-1.3-.5-.3-1.2-.6-2-.8-.8-.2-1.6-.5-2.6-.7-.9-.3-1.8-.6-2.6-1s-1.4-1-2-1.7c-.5-.7-.8-1.7-.8-2.8 0-.8.2-1.5.5-2.2.3-.7.8-1.3 1.5-1.9.6-.5 1.4-1 2.3-1.3.9-.3 1.9-.5 3.1-.5 1.6 0 3.1.3 4.4.9 1.3.6 2.3 1.5 3.1 2.6l-2.8 2.7c-.5-.6-1.2-1.1-2-1.6s-1.7-.7-2.8-.7c-1 0-1.7.2-2.2.5-.5.3-.7.8-.7 1.3s.3.9.8 1.2c.5.3 1.2.5 2 .7.8.2 1.6.5 2.6.7.9.3 1.8.6 2.6 1s1.4 1 2 1.7c.5.7.8 1.7.8 2.8 0 .9-.2 1.7-.5 2.4-.4.7-.9 1.4-1.5 1.9s-1.4 1-2.3 1.3c-.9.3-1.8.5-2.9.5-1.1 0-2.2-.1-3.1-.4-.9-.3-1.8-.6-2.5-1s-1.4-.9-1.9-1.5-1-1.2-1.3-1.8l3.1-2.6c.6 1 1.4 1.8 2.4 2.4 1 .6 2.1.9 3.2.9s1.8-.2 2.3-.5c.4-.3.6-.7.6-1.2zm-80.4 5.4l-9.3-11.4v11.4h-4.1V7.4h3.3l9.3 11.4V7.4h4.1v19.2h-3.3zm86.3-19.3h16.5v4h-6.2v15.2h-4.2V11.4h-6.1v-4zm-34 7.2c-.3.7-.5 1.5-.5 2.4 0 .9.2 1.7.5 2.4s.7 1.3 1.2 1.8 1.1.9 1.7 1.2c.7.3 1.4.4 2.1.4.7 0 1.5-.1 2.1-.4.7-.3 1.2-.7 1.7-1.2s.9-1.1 1.2-1.8c.3-.7.4-1.5.4-2.4 0-.9-.2-1.7-.5-2.4s-.7-1.3-1.2-1.8-1.1-.9-1.7-1.2c-.7-.3-1.3-.4-2-.4s-1.4.1-2.1.4c-.7.3-1.2.7-1.7 1.2s-.9 1.1-1.2 1.8zm-40.9 0c-.3.7-.5 1.5-.5 2.4 0 .9.2 1.7.5 2.4s.7 1.3 1.2 1.8 1.1.9 1.7 1.2c.7.3 1.4.4 2.1.4.7 0 1.5-.1 2.1-.4.7-.3 1.2-.7 1.7-1.2s.9-1.1 1.2-1.8c.3-.7.4-1.5.4-2.4 0-.9-.2-1.7-.5-2.4s-.7-1.3-1.2-1.8-1.1-.9-1.7-1.2c-.7-.3-1.3-.4-2-.4s-1.4.1-2.1.4c-.7.3-1.2.7-1.7 1.2s-.9 1.1-1.2 1.8zm117 0c-.3.7-.5 1.5-.5 2.4 0 .9.1 1.7.5 2.4.3.7.7 1.3 1.2 1.8s1.1.9 1.7 1.2c.7.3 1.4.4 2.1.4.7 0 1.5-.1 2.1-.4.7-.3 1.2-.7 1.7-1.2s.9-1.1 1.2-1.8c.3-.7.4-1.5.4-2.4 0-.9-.2-1.7-.5-2.4s-.7-1.3-1.2-1.8-1.1-.9-1.7-1.2c-.7-.3-1.3-.4-2-.4s-1.4.1-2.1.4c-.7.3-1.2.7-1.7 1.2s-.9 1.1-1.2 1.8zm-18.8-3.2v4.7h3.6c1 0 1.8-.2 2.4-.6.6-.4.8-1 .8-1.8 0-.3-.1-.7-.2-.9-.1-.3-.3-.5-.5-.7-.3-.2-.6-.4-1.1-.5-.4-.1-1-.2-1.7-.2h-3.3z"/><path fill="#FF6F2F" d="M63.7 0H3.8C2 .2.5 1.8.5 3.7V40l10.8-6.1h52.4c1.9-.2 3.4-1.7 3.4-3.6V3.7C67 1.7 65.5.2 63.7 0zm-21 17c0-1.4.3-2.7.8-3.9.5-1.2 1.2-2.3 2.1-3.1.9-.9 1.9-1.6 3.1-2.1 1.2-.5 2.5-.8 3.9-.8s2.6.3 3.8.8c1.2.5 2.2 1.2 3.1 2.1.9.9 1.6 1.9 2.1 3.1s.8 2.5.8 3.9-.3 2.7-.8 3.9c-.5 1.2-1.2 2.3-2.1 3.1-.9.9-1.9 1.6-3.1 2.1-1.2.5-2.5.8-3.8.8-1.4 0-2.6-.3-3.8-.8-1.2-.5-2.2-1.2-3.1-2.1-.9-.9-1.6-1.9-2.1-3.1-.6-1.1-.9-2.5-.9-3.9zm-17.8 9.6V7.5h7.7c1.5 0 2.8.2 3.8.5 1 .4 1.8.8 2.4 1.4.6.6 1 1.2 1.2 2 .2.8.4 1.5.4 2.3 0 1.2-.3 2.4-1 3.4s-1.6 1.8-2.7 2.2l5.3 7.3h-5.1l-4.7-6.5h-3v6.5h-4.3zm-18.8 0V7.5H14c1.6 0 2.9.2 4 .6 1 .4 1.9.9 2.5 1.5.6.6 1 1.3 1.3 2.1.2.8.4 1.6.4 2.4 0 .8-.1 1.6-.4 2.4-.3.8-.7 1.5-1.4 2.1-.6.6-1.5 1.1-2.5 1.5-1 .4-2.3.6-3.8.6h-3.7v6H6.1zm41.5-12c-.3.7-.4 1.5-.4 2.4 0 .9.1 1.7.4 2.4.3.7.7 1.3 1.2 1.8s1.1.9 1.7 1.2c.7.3 1.3.4 2.1.4.7 0 1.4-.1 2.1-.4.7-.3 1.2-.7 1.7-1.2s.9-1.1 1.2-1.8c.3-.7.4-1.5.4-2.4 0-.9-.2-1.7-.5-2.4s-.7-1.3-1.2-1.8-1.1-.9-1.7-1.2c-.7-.3-1.3-.4-2-.4s-1.4.1-2.1.4c-.7.3-1.2.7-1.7 1.2s-.9 1.1-1.2 1.8zm-37.2-3.2v5.2H14c1.3 0 2.3-.2 2.9-.7.6-.5.9-1.1.9-1.9 0-.4-.1-.7-.2-1-.1-.3-.3-.6-.6-.8-.3-.2-.6-.4-1.1-.5-.5-.1-1-.2-1.7-.2h-3.8zm18.7 0v4.7h3.6c1 0 1.8-.2 2.4-.6.6-.4.8-1 .8-1.8 0-.3-.1-.7-.2-.9-.1-.3-.3-.5-.5-.7-.3-.2-.6-.4-1-.5-.4-.1-1-.2-1.7-.2h-3.4z"/></svg>