<svg xmlns="http://www.w3.org/2000/svg" viewBox="0 0 70 70"><path fill="#FFF" d="M3 4.7h62.3V61H3z"/><path fill="#FF6935" d="M69.9 3.8c0-2.1-1.7-3.8-3.8-3.8H3.4C1.5.2 0 1.8 0 3.8v65.4l11.2-4.7h54.9c2.1 0 3.8-1.7 3.8-3.8V3.8zm-30 34.8H38l-5.7-12.1h2.9l3.7 8 3.4-8h2.9l-5.3 12.1zm5.3-6.1c0-.9.2-1.7.5-2.5s.8-1.4 1.3-2c.6-.6 1.2-1 2-1.3.8-.3 1.6-.5 2.4-.5.9 0 1.7.2 2.4.5.8.3 1.4.8 2 1.3.6.5 1 1.2 1.3 2 .3.8.5 1.6.5 2.5 0 .9-.2 1.7-.5 2.5s-.8 1.4-1.3 2c-.6.6-1.2 1-2 1.3-.8.3-1.6.5-2.4.5-.9 0-1.7-.2-2.4-.5-.8-.3-1.4-.8-2-1.3-.6-.5-1-1.2-1.3-2-.3-.7-.5-1.5-.5-2.5zm-14.5-18c0-.9.2-1.7.5-2.5s.8-1.4 1.3-2c.6-.6 1.2-1 2-1.3.8-.3 1.6-.5 2.4-.5.9 0 1.7.2 2.4.5.8.3 1.4.8 2 1.3.6.6 1 1.2 1.3 2 .3.8.5 1.6.5 2.5 0 .9-.2 1.7-.5 2.5s-.8 1.4-1.3 2c-.6.6-1.2 1-2 1.3-.8.3-1.6.5-2.4.5s-1.7-.2-2.4-.5c-.8-.3-1.4-.7-2-1.3-.6-.5-1-1.2-1.3-2-.4-.7-.5-1.6-.5-2.5zM20 32.5c0-.9.2-1.7.5-2.5s.8-1.4 1.3-2c.6-.6 1.2-1 2-1.3.8-.3 1.6-.5 2.4-.5.9 0 1.7.2 2.4.5.8.3 1.4.8 2 1.3.6.5 1 1.2 1.3 2 .3.8.5 1.6.5 2.5 0 .9-.2 1.7-.5 2.5s-.8 1.4-1.3 2c-.6.6-1.2 1-2 1.3-.8.3-1.6.5-2.4.5-.9 0-1.7-.2-2.4-.5-.8-.3-1.4-.8-2-1.3-.6-.5-1-1.2-1.3-2-.4-.7-.5-1.5-.5-2.5zm20.3 18.1c0-.9.2-1.7.5-2.5.3-.7.8-1.4 1.3-1.9.6-.6 1.2-1 2-1.3.8-.3 1.6-.5 2.4-.5.9 0 1.7.2 2.4.5.8.3 1.4.8 2 1.3.6.5 1 1.2 1.3 2 .3.8.5 1.6.5 2.5 0 .9-.2 1.7-.5 2.5-.3.7-.8 1.4-1.3 1.9-.6.6-1.2 1-2 1.3-.8.4-1.6.5-2.4.5-.9 0-1.7-.1-2.4-.5-.8-.3-1.4-.7-2-1.3-.6-.5-1-1.2-1.3-1.9-.4-.9-.5-1.7-.5-2.6zm-20.8-30V8.5h4.9c1 0 1.8.1 2.4.3.6.2 1.1.5 1.5.9s.6.8.8 1.3c.1.5.2 1 .2 1.5 0 .8-.2 1.5-.6 2.1-.4.7-1 1.1-1.7 1.4l3.4 4.6H27l-2.9-4.1h-1.9v4.1h-2.7zm9.6 36V44.5H34c1 0 1.8.1 2.4.3.6.2 1.1.5 1.5.9.4.4.6.8.8 1.3.1.5.2 1 .2 1.5 0 .8-.2 1.5-.6 2.1-.4.7-1 1.1-1.7 1.4l3.4 4.6h-3.2l-2.9-4.1H32v4.1h-2.9zm-15.2-3.3c0-.4-.2-.7-.5-.9-.3-.2-.7-.3-1.2-.5-.5-.1-1-.3-1.6-.4-.6-.2-1.1-.4-1.6-.7-.5-.3-.9-.6-1.2-1.1-.3-.4-.5-1-.5-1.8 0-.5.1-.9.3-1.4.2-.4.5-.8.9-1.2.4-.3.9-.6 1.5-.8.6-.2 1.2-.3 1.9-.3 1 0 2 .2 2.8.6.8.4 1.5.9 2 1.6l-1.8 1.7c-.3-.4-.8-.7-1.3-1-.5-.3-1.1-.4-1.8-.4-.6 0-1.1.1-1.4.3-.3.2-.4.5-.4.8 0 .3.2.6.5.7.3.2.7.4 1.2.5.5.1 1 .3 1.6.4.6.2 1.1.4 1.6.7.5.3.9.6 1.2 1.1.3.4.5 1 .5 1.8 0 .5-.1 1-.3 1.5s-.5.9-1 1.2-.9.6-1.4.8c-.6.2-1.2.3-1.8.3-.7 0-1.4-.1-2-.3-.6 0-1.1-.2-1.6-.5s-.9-.6-1.2-.9c-.3-.4-.6-.8-.8-1.2l1.9-1.6c.4.7.9 1.2 1.5 1.5.6.4 1.3.6 2 .6s1.2-.1 1.4-.3c.5-.3.6-.5.6-.8zm2.2-14.7l-5.8-7.2v7.2H7.6V26.5h2.1l5.9 7.2v-7.2h2.6v12.1h-2.1zm1.3 5.9h10.4V47h-3.9v9.6h-2.7V47h-3.9v-2.5zM7.6 20.6V8.5h5c1 0 1.9.1 2.5.4.7.3 1.2.6 1.6 1 .4.4.7.8.8 1.3.1.5.2 1 .2 1.5s-.1 1-.3 1.5c-.2.5-.5.9-.9 1.3s-.9.7-1.6.9c-.7.2-1.5.3-2.4.3h-2.3v3.8H7.6zM23 31c-.2.4-.3 1-.3 1.5 0 .6.1 1.1.3 1.5.2.4.4.8.8 1.1.3.3.7.6 1.1.7.4.2.9.3 1.3.3.5 0 .9-.1 1.3-.3.4-.2.8-.4 1.1-.7.3-.3.6-.7.7-1.1.2-.5.3-1 .3-1.5 0-.6-.1-1.1-.3-1.5-.2-.5-.5-.8-.8-1.2-.3-.3-.7-.6-1.1-.7-.4-.2-.8-.3-1.3-.3s-.9.1-1.3.3c-.4.2-.8.4-1.1.7-.2.4-.5.8-.7 1.2zm10.7-18c-.2.5-.3 1-.3 1.5 0 .6.1 1.1.3 1.5.2.4.4.8.8 1.1.3.3.7.6 1.1.7.4.2.9.3 1.3.3.5 0 .9-.1 1.3-.3.4-.2.8-.4 1.1-.7.3-.3.6-.7.7-1.1.2-.5.3-1 .3-1.5 0-.6-.1-1.1-.3-1.5-.2-.5-.5-.8-.8-1.1-.3-.3-.7-.6-1.1-.7s-.8-.3-1.3-.3-.9.1-1.3.3-.8.4-1.1.7c-.2.3-.5.7-.7 1.1zm14.6 18c-.2.4-.3 1-.3 1.5 0 .6.1 1.1.3 1.5.2.4.4.8.8 1.1.3.3.7.6 1.1.7s.9.3 1.3.3c.5 0 .9-.1 1.3-.3.4-.2.8-.4 1.1-.7.3-.3.6-.7.7-1.1.2-.5.3-1 .3-1.5 0-.6-.1-1.1-.3-1.5-.2-.5-.5-.8-.8-1.2-.3-.3-.7-.6-1.1-.7-.4-.2-.8-.3-1.3-.3s-.9.1-1.3.3c-.4.2-.8.4-1.1.7-.3.4-.6.8-.7 1.2zm-5 18.1c-.2.4-.3.9-.3 1.5 0 .5.1 1 .3 1.5.2.4.4.8.8 1.1.3.4.7.6 1.1.8.4.1.9.2 1.3.2.5 0 .9-.1 1.3-.2.4-.2.8-.4 1.1-.8.3-.3.6-.7.7-1.1.2-.5.3-1 .3-1.5 0-.6-.1-1.1-.3-1.5-.2-.5-.5-.9-.8-1.2-.3-.3-.7-.6-1.1-.7-.4-.2-.8-.3-1.3-.3s-.9.1-1.3.3c-.4.2-.8.4-1.1.7-.2.3-.5.7-.7 1.2zM10.3 11v3.3h2.3c.8 0 1.4-.1 1.8-.4.4-.3.6-.7.6-1.2 0-.2 0-.5-.1-.6-.1-.2-.2-.4-.4-.5-.2-.2-.4-.3-.7-.3-.3-.3-.7-.3-1.1-.3h-2.4zm21.4 36v3H34c.7 0 1.2-.1 1.5-.4.4-.3.5-.6.5-1.1 0-.2 0-.4-.1-.6-.1-.2-.2-.3-.3-.4-.2-.1-.4-.2-.7-.3-.3-.1-.6-.1-1.1-.1h-2.1zm-9.5-36v3h2.3c.7 0 1.2-.1 1.5-.4.4-.3.5-.6.5-1.1 0-.2 0-.4-.1-.6-.1-.2-.2-.3-.3-.5-.2-.1-.4-.2-.7-.3-.3-.1-.7-.1-1.1-.1h-2.1zm38 41.3v4.3h-2.7v-4.3l-4.8-7.8h3.2l3 4.9 3.1-4.9h3.1l-4.9 7.8z"/></svg>